<?xml version="1.0" encoding="UTF-8" standalone="no"?><!DOCTYPE svg PUBLIC "-//W3C//DTD SVG 1.1//EN" "http://www.w3.org/Graphics/SVG/1.1/DTD/svg11.dtd"><svg width="100%" height="100%" viewBox="0 0 323 341" version="1.1" xmlns="http://www.w3.org/2000/svg"  xml:space="preserve"  style="fill-rule:evenodd;clip-rule:evenodd;stroke-linejoin:round;stroke-miterlimit:2;"><g><path d="M149.004,333.267c4.854,10.304 19.512,10.304 24.371,-0l53.691,-113.892c-65.462,-19.962 -126.554,-53.104 -178.158,-98.437l100.096,212.329Z" style="fill:#00c7a0;fill-rule:nonzero;"/><path d="M306.021,0.4c-109.246,26.487 -181.6,28.871 -289.071,0.825c-11.071,-2.888 -20.509,8.412 -15.634,18.758l20.884,44.292c64.825,62.675 162.7,94.987 229.079,103.729l70.137,-148.783c4.338,-9.204 -2.666,-19.217 -12.112,-19.221c-1.067,0 -2.167,0.129 -3.283,0.4Z" style="fill:url(#_Linear1);fill-rule:nonzero;"/></g><defs><linearGradient id="_Linear1" x1="0" y1="0" x2="1" y2="0" gradientUnits="userSpaceOnUse" gradientTransform="matrix(130.755,-293.884,293.884,130.755,116.019,219.852)"><stop offset="0" style="stop-color:#00ffe5;stop-opacity:1"/><stop offset="1" style="stop-color:#079c2e;stop-opacity:1"/></linearGradient></defs></svg>